<?xml version="1.0" encoding="UTF-8"?>
<svg version="1.1" xmlns="http://www.w3.org/2000/svg" width="512" height="512">
<path d="M0 0 C0.91297852 0.16628906 1.82595703 0.33257812 2.76660156 0.50390625 C47.36977944 8.7102831 89.06279656 28.98564534 123 59 C124.25296875 60.08667969 124.25296875 60.08667969 125.53125 61.1953125 C136.60647413 70.9400714 146.95114912 81.33962414 156 93 C156.763125 93.93457031 157.52625 94.86914062 158.3125 95.83203125 C184.15684827 128.09604936 200.62720036 167.52104382 208 208 C208.16371094 208.83563477 208.32742188 209.67126953 208.49609375 210.53222656 C213.78656862 238.24163521 213.41678597 270.35093304 208 298 C207.83371094 298.91297852 207.66742188 299.82595703 207.49609375 300.76660156 C199.83636923 342.3986228 181.59375117 381.16052206 155 414 C154.55994629 414.54446777 154.11989258 415.08893555 153.66650391 415.64990234 C142.18825137 429.72173929 129.42280936 442.93680647 115 454 C114.06929688 454.75925781 113.13859375 455.51851563 112.1796875 456.30078125 C82.25282443 480.29584921 45.95220141 496.25476772 8.625 504.375 C6.98833374 504.73295654 6.98833374 504.73295654 5.31860352 505.09814453 C-11.30215219 508.52053791 -27.757052 509.37892817 -44.6875 509.3125 C-45.65489105 509.31067719 -46.6222821 509.30885437 -47.61898804 509.30697632 C-61.94956519 509.26155569 -75.90110797 508.76214314 -90 506 C-90.91297852 505.83371094 -91.82595703 505.66742188 -92.76660156 505.49609375 C-134.3986228 497.83636923 -173.16052206 479.59375117 -206 453 C-206.54446777 452.55994629 -207.08893555 452.11989258 -207.64990234 451.66650391 C-221.72173929 440.18825137 -234.93680647 427.42280936 -246 413 C-246.75925781 412.06929688 -247.51851562 411.13859375 -248.30078125 410.1796875 C-274.1596216 377.92831086 -290.62794761 338.47485354 -298 298 C-298.16371094 297.16436523 -298.32742188 296.32873047 -298.49609375 295.46777344 C-303.78656862 267.75836479 -303.41678597 235.64906696 -298 208 C-297.83371094 207.08702148 -297.66742188 206.17404297 -297.49609375 205.23339844 C-289.83636923 163.6013772 -271.59375117 124.83947794 -245 92 C-244.55994629 91.45553223 -244.11989258 90.91106445 -243.66650391 90.35009766 C-232.18825137 76.27826071 -219.42280936 63.06319353 -205 52 C-204.06929688 51.24074219 -203.13859375 50.48148438 -202.1796875 49.69921875 C-169.92831086 23.8403784 -130.47485354 7.37205239 -90 0 C-89.16436523 -0.16371094 -88.32873047 -0.32742188 -87.46777344 -0.49609375 C-59.75836479 -5.78656862 -27.64906696 -5.41678597 0 0 Z M-189.55859375 94.67578125 C-191.58778384 96.60757021 -193.64775764 98.41288703 -195.8125 100.1875 C-199.63698803 103.43279874 -202.78321753 107.16460551 -206 111 C-206.73992187 111.85207031 -207.47984375 112.70414062 -208.2421875 113.58203125 C-245.70198322 157.32501955 -263.69316921 213.44682197 -259.3125 270.8125 C-255.143673 317.98545582 -236.10726281 363.14836211 -203.32421875 397.55859375 C-201.39242979 399.58778384 -199.58711297 401.64775764 -197.8125 403.8125 C-194.56720126 407.63698803 -190.83539449 410.78321753 -187 414 C-186.14792969 414.73992187 -185.29585938 415.47984375 -184.41796875 416.2421875 C-140.70371681 453.67737452 -84.51707482 471.69041222 -27.1875 467.3125 C19.97278145 463.14479307 65.15136802 444.10439903 99.55859375 411.32421875 C101.58778384 409.39242979 103.64775764 407.58711297 105.8125 405.8125 C109.63698803 402.56720126 112.78321753 398.83539449 116 395 C116.73992187 394.14792969 117.47984375 393.29585938 118.2421875 392.41796875 C154.63937395 349.91582291 173.456406 294.65337528 169.54443359 238.68359375 C165.62101761 190.11583376 147.14598951 143.94192183 113.32421875 108.44140625 C111.39242979 106.41221616 109.58711297 104.35224236 107.8125 102.1875 C104.56720126 98.36301197 100.83539449 95.21678247 97 92 C96.14792969 91.26007813 95.29585938 90.52015625 94.41796875 89.7578125 C22.05358507 27.78776574 -87.10423175 20.26190324 -189.55859375 94.67578125 Z " fill="#000000" transform="translate(301,3)"/>
<path d="M0 0 C4.65225517 3.66695222 8.24164737 8.61982619 9.09765625 14.546875 C9.3945102 20.42098499 8.38118008 25.19177394 6.2109375 30.6171875 C5.65796423 32.04396566 5.10515525 33.47080749 4.55249023 34.89770508 C4.26211884 35.63856354 3.97174744 36.379422 3.6725769 37.14273071 C2.50640478 40.13556077 1.37573138 43.14120171 0.24549866 46.14775085 C-1.29314327 50.23875821 -2.8460468 54.32435018 -4.3984375 58.41015625 C-4.73697754 59.3012207 -5.07551758 60.19228516 -5.42431641 61.11035156 C-11.44968855 76.94958688 -17.65842977 92.71219744 -23.9236145 108.45785522 C-29.5100428 122.50366383 -34.9859067 136.58516432 -40.3359375 150.72265625 C-45.60109409 164.62605653 -50.9375257 178.49917413 -56.38543701 192.3321228 C-57.13717086 194.24153483 -57.88740329 196.15153872 -58.63604736 198.06216431 C-59.67328454 200.70736795 -60.7165306 203.35011707 -61.76171875 205.9921875 C-62.06724167 206.77348022 -62.37276459 207.55477295 -62.68754578 208.35974121 C-65.92614804 216.49908344 -69.21900446 221.38242529 -77.2109375 225.41015625 C-83.76168632 227.47941548 -90.10764538 226.35490037 -96.2109375 223.41015625 C-102.88817386 217.8197623 -106.26123132 209.89259088 -109.8359375 202.16015625 C-110.43845918 200.88214222 -111.04207718 199.60464455 -111.64672852 198.32763672 C-113.20808581 195.02080599 -114.75285693 191.70653377 -116.29193115 188.38928223 C-117.19397093 186.44669459 -118.09947246 184.50576411 -119.00634766 182.56542969 C-121.74284437 176.70992133 -124.4681947 170.84941741 -127.17578125 164.98046875 C-127.68181885 163.92102051 -128.18785645 162.86157227 -128.70922852 161.77001953 C-129.78931908 159.35346834 -130.68784557 157.07131583 -131.52319336 154.57763672 C-134.37220119 146.60860089 -137.53213489 142.26600067 -145.22265625 138.46484375 C-148.41409002 136.98473682 -151.64872969 135.63128074 -154.8984375 134.28515625 C-156.60526534 133.53458904 -158.30992601 132.77907543 -160.01245117 132.01879883 C-163.43421589 130.49791326 -166.86524705 129.00244576 -170.30761719 127.52880859 C-177.28230322 124.53369617 -184.1481286 121.31241513 -191.0234375 118.09765625 C-192.13485107 117.58895996 -193.24626465 117.08026367 -194.39135742 116.55615234 C-214.47371713 107.33715291 -214.47371713 107.33715291 -218.4609375 100.16015625 C-220.50071044 92.68098881 -220.78864908 86.48808384 -217.2109375 79.41015625 C-210.93383729 70.50473741 -199.14277863 67.41110321 -189.29296875 63.6796875 C-187.62055367 63.03747002 -187.62055367 63.03747002 -185.91435242 62.38227844 C-182.28611249 60.99027791 -178.65477705 59.60654799 -175.0234375 58.22265625 C-172.47080579 57.24540584 -169.91895466 56.26612644 -167.3671875 55.28662109 C-163.46113579 53.7876623 -159.55492422 52.28913155 -155.64761353 50.79345703 C-143.32199701 46.07516123 -131.01421749 41.31135868 -118.7109375 36.53515625 C-116.69442537 35.75282755 -114.67790523 34.97051951 -112.66137695 34.18823242 C-99.67349688 29.14850679 -86.68990105 24.09780045 -73.7109375 19.03515625 C-72.87744781 18.71008087 -72.04395813 18.38500549 -71.18521118 18.05007935 C-62.2734808 14.5732018 -53.36763335 11.08203267 -44.47265625 7.5625 C-43.69789948 7.25618652 -42.9231427 6.94987305 -42.12490845 6.63427734 C-38.48424192 5.1946707 -34.84461658 3.7525507 -31.20703125 2.30517578 C-29.93102369 1.79971858 -28.65498398 1.29434252 -27.37890625 0.7890625 C-25.72797974 0.13272827 -25.72797974 0.13272827 -24.04370117 -0.53686523 C-16.20676203 -3.44996689 -7.48326184 -4.29594661 0 0 Z M-56.09912109 57.20751953 C-57.12512421 57.60325165 -58.15112732 57.99898376 -59.20822144 58.40670776 C-60.33060211 58.84354889 -61.45298279 59.28039001 -62.609375 59.73046875 C-63.7758255 60.181409 -64.942276 60.63234924 -66.14407349 61.09695435 C-69.3057171 62.32005133 -72.46617524 63.54611566 -75.62600708 64.77388 C-78.88086938 66.03813374 -82.1367847 67.29966999 -85.39257812 68.56152344 C-89.29872134 70.07564967 -93.20467768 71.59025204 -97.10992432 73.10668945 C-104.72254672 76.0621985 -112.34198785 78.99915248 -119.96875 81.91796875 C-122.4500681 82.87072594 -124.93109314 83.8242401 -127.41192627 84.77825928 C-128.94093841 85.36478585 -130.47084494 85.94898627 -132.00164795 86.53082275 C-134.08430391 87.32286565 -136.16357109 88.12320969 -138.2421875 88.92578125 C-139.38236328 89.36180664 -140.52253906 89.79783203 -141.69726562 90.24707031 C-144.34272155 91.15377034 -144.34272155 91.15377034 -145.2109375 93.41015625 C-144.40986572 93.77778076 -143.60879395 94.14540527 -142.78344727 94.52416992 C-139.76846117 95.90985745 -136.75498685 97.29873728 -133.74243164 98.68969727 C-132.44646014 99.28730644 -131.14992448 99.88369394 -129.8527832 100.47875977 C-117.87886452 105.9735453 -117.87886452 105.9735453 -112.11328125 108.9609375 C-111.46738037 109.29391846 -110.82147949 109.62689941 -110.15600586 109.9699707 C-105.00058968 113.78719174 -102.16273223 118.96098348 -99.51171875 124.671875 C-99.19059616 125.34434769 -98.86947357 126.01682037 -98.53862 126.70967102 C-97.52534934 128.83521599 -96.52391234 130.96606286 -95.5234375 133.09765625 C-94.51003285 135.23883172 -93.49417718 137.37880937 -92.47612 139.51777649 C-91.84630294 140.84291047 -91.21954553 142.16950419 -90.5962677 143.49772644 C-89.27654782 146.29053493 -87.9291154 148.8328894 -86.2109375 151.41015625 C-81.89574075 142.46748706 -78.39997877 133.25121117 -74.9074707 123.96728516 C-73.16610823 119.33853893 -71.41366798 114.71399882 -69.66015625 110.08984375 C-69.29880585 109.13656189 -68.93745544 108.18328003 -68.56515503 107.20111084 C-65.95115709 100.32036299 -63.29171197 93.45831195 -60.60546875 86.60546875 C-60.23451584 85.65888397 -59.86356293 84.71229919 -59.48136902 83.73703003 C-57.6889993 79.16750628 -55.89123359 74.60016067 -54.08862305 70.03466797 C-53.44182862 68.3890233 -52.79509663 66.74335409 -52.1484375 65.09765625 C-51.84923904 64.34445099 -51.55004059 63.59124573 -51.24177551 62.81521606 C-49.73509051 59.22153787 -49.73509051 59.22153787 -49.2109375 55.41015625 C-51.8279567 55.41015625 -53.6531891 56.2596781 -56.09912109 57.20751953 Z " fill="#000000" transform="translate(353.2109375,152.58984375)"/>
</svg>
